<svg id="Layer_1" data-name="Layer 1" xmlns="http://www.w3.org/2000/svg" xmlns:xlink="http://www.w3.org/1999/xlink" viewBox="0 0 282.37 150.38"><defs><clipPath id="clip-path"><rect width="282.37" height="150.38" style="fill:none"/></clipPath></defs><title>logo-Artboard 1</title><g style="clip-path:url(#clip-path)"><path d="M47.16,105.81a19.26,19.26,0,0,1-11.94,24.43l-13.49,4.63L9.29,98.66,22.88,94a19.17,19.17,0,0,1,24.28,11.83M37.9,109A9.45,9.45,0,0,0,26,103.13l-4.35,1.49,6.16,17.94,4.35-1.49A9.43,9.43,0,0,0,37.9,109" style="fill:#20b7d2"/><path d="M86.38,92.46a19.65,19.65,0,1,1-25-12.23,19.62,19.62,0,0,1,25,12.23M76.9,95.71a9.59,9.59,0,1,0-6.05,12.13A9.59,9.59,0,0,0,76.9,95.71" style="fill:#d54d96"/><path d="M90.59,97.39,82.39,73.5l9.21-3.17,8.21,23.89a3.26,3.26,0,0,0,3.93,2.1l5.83-2a3.26,3.26,0,0,0,1.81-4.07l-8.21-23.89,9.21-3.16,8.21,23.89a12.91,12.91,0,0,1-8.26,16.65l-5,1.71a12.91,12.91,0,0,1-16.74-8.06" style="fill:#20b7d2"/><path d="M137.19,70.18l18-6.18,1.72,5c3.66,10.65-1.15,20.39-11.79,24a19.5,19.5,0,0,1-12.62-36.91,19.79,19.79,0,0,1,10.87-.53l-1.78,9.86a10.13,10.13,0,0,0-5.84.13,9.52,9.52,0,0,0,6.14,18A9.64,9.64,0,0,0,148,77.07l-7.56,2.6-3.26-9.49" style="fill:#20b7d2"/><polygon points="165.05 85.56 152.59 49.37 152.62 49.37 152.61 49.34 152.69 49.34 162.06 46.12 167.07 60.73 179.23 56.55 174.2 41.92 174.29 41.92 183.63 38.72 196.06 74.91 186.64 78.14 182.29 65.47 170.13 69.64 174.49 82.32 165.05 85.56" style="fill:#20b7d2"/><path d="M217.53,27.06,228.12,57.9c2.24,6.36-5.83,11.17-10.68,7L201.89,51.27l6.84,19.36-9.56,3.29L188.8,43.61c-3-8.62,6-10.74,10-7.17l16.71,14.73L208,30.34l9.56-3.28" style="fill:#20b7d2"/><path d="M228.21,50.13,220,26.24l9.21-3.17L237.43,47a3.26,3.26,0,0,0,3.93,2.1l5.83-2A3.26,3.26,0,0,0,249,43l-8.2-23.89L250,15.94l8.21,23.89a12.91,12.91,0,0,1-8.26,16.65l-5,1.71a12.91,12.91,0,0,1-16.74-8.06" style="fill:#20b7d2"/><polygon points="273.22 48.48 263.91 21.36 255.01 24.41 251.91 15.37 278.84 6.12 281.94 15.16 273.05 18.22 282.37 45.34 273.22 48.48" style="fill:#20b7d2"/><path d="M134.9,102.27l6.61,19.25c1,2.87,1.18,4.48.26,7.34l-4.19,13-7.31,2.51-7.44-5.1L120,147.87l-7.31,2.51-11.23-7.69c-2.49-1.69-3.33-3.08-4.31-5.95l-6.61-19.25,9.24-3.17,6.63,19.3a3.87,3.87,0,0,0,1.15,2l5.59,4.29L115,133a4,4,0,0,0-.31-2.27l-6.63-19.3,9.24-3.17L124,127.69a3.87,3.87,0,0,0,1.12,1.88l5.64,4.28,1.82-6.84a3.88,3.88,0,0,0-.31-2.27l-6.63-19.3,9.24-3.18" style="fill:#20b7d2"/><path d="M175.32,128.94l-12.77,4.39a13.39,13.39,0,0,1-16.86-8.24L141.88,114a13.37,13.37,0,0,1,8.22-16.91l12.77-4.39,3.11,9.07-12.77,4.38a3.61,3.61,0,0,0-2.15,4.52l.5,1.46,16.08-5.52,3,8.6-16.08,5.52.42,1.21a3.72,3.72,0,0,0,4.52,2.37l12.77-4.39,3.09,9" style="fill:#20b7d2"/><path d="M203.36,119.31l-12.77,4.39a13.39,13.39,0,0,1-16.86-8.24l-3.8-11.07a13.37,13.37,0,0,1,8.22-16.91l12.77-4.39L194,92.15l-12.77,4.39a3.6,3.6,0,0,0-2.15,4.52l.5,1.46L195.7,97l3,8.6-16.08,5.52.42,1.21a3.72,3.72,0,0,0,4.52,2.37l12.77-4.39,3.09,9" style="fill:#20b7d2"/><path d="M225.82,111.51l-1.31-3.8a3,3,0,0,0-1.39-1.79L214,100.63l-3.21,1.1,4.59,13.37-9.46,3.25L193.49,82.18l9.46-3.25,4.61,13.42,2.89-1,4.25-10a2.92,2.92,0,0,0,0-2.24l-1.3-3.78,9.19-3.16,1.35,3.93c1,2.84,1.23,5.51-.06,8.28l-4,8.92,8.59,4.59c2.71,1.39,4.16,3.68,5.13,6.5l1.36,4-9.19,3.16" style="fill:#20b7d2"/><path d="M23.6,53.35l8.52,24.82c1.8,5.12-4.69,9-8.59,5.6L11,72.83l5.51,15.58-7.7,2.64L.47,66.67C-1.91,59.73,5.31,58,8.54,60.9L22,72.75,15.9,56l7.7-2.64" style="fill:#20b7d2"/><path d="M52.64,76l-2.33-6.78-9.43,3.24,2.33,6.78-7.6,2.61L29.07,62.81A10.91,10.91,0,0,1,35.82,49l4.06-1.39a11,11,0,0,1,13.85,6.74l6.55,19.07L52.64,76m-16-15.84,1.58,4.59,9.42-3.24L46.09,57a2.85,2.85,0,0,0-3.63-1.82l-4.06,1.39a2.88,2.88,0,0,0-1.74,3.67" style="fill:#20b7d2"/><polygon points="68.78 70.47 61.28 48.64 54.12 51.09 51.62 43.82 73.3 36.37 75.8 43.65 68.64 46.11 76.14 67.94 68.78 70.47" style="fill:#20b7d2"/><rect x="80.59" y="33.29" width="8.09" height="30.87" transform="translate(-11.24 30.13) rotate(-18.95)" style="fill:#20b7d2"/><path d="M120.7,36.39a15.81,15.81,0,1,1-20.14-9.84,15.79,15.79,0,0,1,20.14,9.84M113.06,39a7.72,7.72,0,1,0-4.87,9.77A7.71,7.71,0,0,0,113.06,39" style="fill:#d54d96"/><path d="M142.07,12.67l8.52,24.82c1.8,5.12-4.69,9-8.59,5.6L129.49,32.15,135,47.73l-7.7,2.64L118.94,26c-2.38-6.94,4.83-8.64,8.06-5.77l13.45,11.85-6.09-16.76,7.7-2.64" style="fill:#20b7d2"/><path d="M171.11,35.35l-2.33-6.78-9.43,3.24,2.33,6.78-7.6,2.61-6.55-19.07a10.91,10.91,0,0,1,6.75-13.81l4.06-1.39a11,11,0,0,1,13.85,6.74l6.55,19.07-7.64,2.62m-16-15.83,1.58,4.59,9.43-3.24-1.58-4.59a2.85,2.85,0,0,0-3.63-1.82l-4.06,1.39a2.88,2.88,0,0,0-1.74,3.67" style="fill:#20b7d2"/><path d="M170.69,2.62h0v0c.12,0,.2,0,7.6-2.59l6.82,19.85a2.15,2.15,0,0,0,2.79,1.2l6.64-2.28,2.62,7.64-7.12,2.45a9.69,9.69,0,0,1-12.49-6.27l-6.88-20" style="fill:#20b7d2"/></g></svg>